<?xml version="1.0" standalone="no"?>
<!DOCTYPE svg PUBLIC "-//W3C//DTD SVG 20010904//EN"
 "http://www.w3.org/TR/2001/REC-SVG-20010904/DTD/svg10.dtd">
<svg version="1.0" xmlns="http://www.w3.org/2000/svg"
 width="512.000000pt" height="512.000000pt" viewBox="0 0 512.000000 512.000000"
 preserveAspectRatio="xMidYMid meet">

<g transform="translate(0.000000,512.000000) scale(0.100000,-0.100000)"
fill="#000000" stroke="none">
<path d="M2249 4081 c-13 -11 -195 -244 -404 -520 l-380 -500 -50 -15 c-106
-32 -186 -106 -229 -209 -21 -51 -21 -62 -24 -775 -2 -470 1 -743 8 -780 21
-117 93 -211 198 -260 l57 -27 1115 0 1115 0 67 33 c77 38 130 92 167 171 26
55 26 60 29 303 3 230 5 248 22 253 10 3 34 23 53 45 44 48 50 84 46 262 -4
151 -18 188 -83 223 l-34 19 -4 245 c-3 243 -3 247 -30 304 -15 32 -51 83 -81
115 -47 50 -104 139 -205 322 -28 51 -115 203 -210 365 -86 148 -119 153 -292
52 -64 -37 -120 -67 -126 -67 -6 0 -76 50 -155 112 -79 61 -215 164 -302 230
-145 108 -162 118 -201 118 -28 0 -52 -7 -67 -19z m139 -77 c34 -25 62 -50 62
-55 0 -5 -151 -207 -336 -449 l-337 -440 -119 0 c-89 0 -117 3 -112 12 23 36
720 946 736 961 29 25 37 22 106 -29z m221 -171 c41 -32 74 -62 74 -66 -1 -7
-388 -520 -496 -658 l-39 -49 -144 0 c-79 0 -144 2 -144 4 0 3 162 217 461
608 148 193 185 236 198 228 9 -5 50 -35 90 -67z m317 -239 c139 -107 164
-130 164 -153 0 -18 -41 -80 -136 -203 l-136 -178 -295 0 c-243 0 -293 2 -286
13 4 8 118 159 253 335 156 205 250 320 258 317 8 -3 88 -62 178 -131z m366
109 c8 -10 29 -43 47 -74 l31 -57 -102 -58 c-57 -33 -105 -60 -108 -62 -3 -1
-10 11 -16 27 -6 16 -34 46 -62 67 -28 22 -50 42 -49 47 4 14 201 126 223 126
11 1 28 -7 36 -16z m167 -286 c28 -49 51 -92 51 -96 0 -5 -99 -65 -220 -135
l-219 -126 -86 0 c-47 0 -85 2 -85 5 0 2 30 44 67 92 160 210 150 201 294 284
74 42 137 74 141 71 3 -4 29 -47 57 -95z m150 -259 c33 -56 59 -102 58 -103
-1 0 -107 2 -234 5 l-233 5 168 97 c92 53 170 97 174 98 4 0 34 -46 67 -102z
m48 -173 c68 -20 143 -88 173 -157 19 -42 24 -76 28 -170 l4 -117 -41 -3 c-53
-4 -54 -22 -1 -26 l40 -3 0 -99 0 -99 -312 -3 -313 -3 -47 -27 c-97 -58 -145
-155 -136 -278 9 -120 87 -219 196 -250 21 -6 160 -10 325 -10 l289 0 -4 -232
c-3 -219 -5 -236 -27 -285 -29 -65 -91 -124 -157 -149 -47 -18 -91 -19 -1139
-19 l-1090 0 -57 28 c-32 16 -73 46 -92 69 -60 70 -66 102 -66 370 l0 238 46
0 c59 0 55 24 -4 28 l-42 3 0 274 0 274 42 3 c59 4 63 28 4 28 l-46 0 0 208
c0 204 1 209 26 260 14 28 45 69 69 90 85 75 15 71 1211 71 927 1 1077 -1
1121 -14z m285 -764 c31 -28 33 -33 36 -110 l4 -81 -51 0 c-28 0 -51 -4 -51
-10 0 -5 23 -10 50 -10 l50 0 0 -60 c0 -72 -19 -114 -60 -135 -26 -14 -76 -15
-343 -13 -293 3 -314 4 -351 24 -157 82 -151 333 9 405 36 17 72 19 357 19
l318 0 32 -29z"/>
<path d="M1395 2896 c-46 -28 -88 -94 -83 -131 5 -40 20 -31 41 25 20 53 47
78 105 95 42 13 46 29 7 33 -18 1 -46 -7 -70 -22z"/>
<path d="M3590 2907 c0 -9 13 -17 34 -21 59 -11 116 -73 116 -125 0 -24 19
-38 30 -21 19 31 -20 114 -71 153 -35 25 -109 35 -109 14z"/>
<path d="M1890 2138 c1 -15 172 -148 190 -148 24 0 0 27 -81 92 -84 66 -109
79 -109 56z"/>
<path d="M2016 2131 c-10 -15 55 -64 68 -51 8 8 2 17 -19 35 -33 27 -41 29
-49 16z"/>
<path d="M1896 2063 c-12 -13 -5 -22 44 -58 49 -36 68 -40 57 -13 -7 18 -93
79 -101 71z"/>
<path d="M1310 1315 c0 -67 69 -148 136 -161 41 -7 70 10 44 26 -8 5 -24 10
-35 10 -45 0 -90 46 -106 108 -13 46 -39 58 -39 17z"/>
<path d="M3736 1299 c-8 -48 -49 -95 -92 -104 -49 -11 -54 -14 -54 -31 0 -23
61 -12 110 20 56 37 98 146 59 154 -12 2 -18 -8 -23 -39z"/>
<path d="M3304 2120 c-36 -14 -64 -59 -64 -102 0 -32 7 -47 34 -74 44 -44 99
-47 145 -8 95 80 1 231 -115 184z m86 -60 c24 -24 26 -57 3 -82 -34 -38 -103
-11 -103 40 0 56 61 81 100 42z"/>
</g>
</svg>
